<?xml version="1.0" encoding="UTF-8" standalone="no"?><svg xmlns="http://www.w3.org/2000/svg" xmlns:xlink="http://www.w3.org/1999/xlink" contentScriptType="application/ecmascript" contentStyleType="text/css" height="466px" preserveAspectRatio="none" style="width:453px;height:466px;" version="1.1" viewBox="0 0 453 466" width="453px" zoomAndPan="magnify"><defs><filter height="300%" id="fu0o6bj" width="300%" x="-1" y="-1"><feGaussianBlur result="blurOut" stdDeviation="2.0"/><feColorMatrix in="blurOut" result="blurOut2" type="matrix" values="0 0 0 0 0 0 0 0 0 0 0 0 0 0 0 0 0 0 .4 0"/><feOffset dx="4.0" dy="4.0" in="blurOut2" result="blurOut3"/><feBlend in="SourceGraphic" in2="blurOut3" mode="normal"/></filter></defs><g><text fill="#000000" font-family="sans-serif" font-size="14" font-weight="bold" lengthAdjust="spacingAndGlyphs" textLength="42" x="210" y="23.5352">热加载</text><line style="stroke: #A80036; stroke-width: 1.0; stroke-dasharray: 5.0,5.0;" x1="54" x2="54" y1="116.9766" y2="382.1504"/><line style="stroke: #A80036; stroke-width: 1.0; stroke-dasharray: 5.0,5.0;" x1="149" x2="149" y1="116.9766" y2="382.1504"/><line style="stroke: #A80036; stroke-width: 1.0; stroke-dasharray: 5.0,5.0;" x1="350.5" x2="350.5" y1="116.9766" y2="382.1504"/><text fill="#000000" font-family="sans-serif" font-size="14" lengthAdjust="spacingAndGlyphs" textLength="86" x="8" y="114.0234">Programmer</text><ellipse cx="54" cy="43.4883" fill="#FEFECE" filter="url(#fu0o6bj)" rx="8" ry="8" style="stroke: #A80036; stroke-width: 2.0;"/><path d="M54,51.4883 L54,78.4883 M41,59.4883 L67,59.4883 M54,78.4883 L41,93.4883 M54,78.4883 L67,93.4883 " fill="#FEFECE" filter="url(#fu0o6bj)" style="stroke: #A80036; stroke-width: 2.0;"/><text fill="#000000" font-family="sans-serif" font-size="14" lengthAdjust="spacingAndGlyphs" textLength="86" x="8" y="394.6855">Programmer</text><ellipse cx="54" cy="407.6387" fill="#FEFECE" filter="url(#fu0o6bj)" rx="8" ry="8" style="stroke: #A80036; stroke-width: 2.0;"/><path d="M54,415.6387 L54,442.6387 M41,423.6387 L67,423.6387 M54,442.6387 L41,457.6387 M54,442.6387 L67,457.6387 " fill="#FEFECE" filter="url(#fu0o6bj)" style="stroke: #A80036; stroke-width: 2.0;"/><rect fill="#FEFECE" filter="url(#fu0o6bj)" height="30.4883" style="stroke: #A80036; stroke-width: 1.5;" width="74" x="110" y="81.4883"/><text fill="#000000" font-family="sans-serif" font-size="14" lengthAdjust="spacingAndGlyphs" textLength="60" x="117" y="102.0234">webpack</text><rect fill="#FEFECE" filter="url(#fu0o6bj)" height="30.4883" style="stroke: #A80036; stroke-width: 1.5;" width="74" x="110" y="381.1504"/><text fill="#000000" font-family="sans-serif" font-size="14" lengthAdjust="spacingAndGlyphs" textLength="60" x="117" y="401.6855">webpack</text><rect fill="#FEFECE" filter="url(#fu0o6bj)" height="30.4883" style="stroke: #A80036; stroke-width: 1.5;" width="69" x="314.5" y="81.4883"/><text fill="#000000" font-family="sans-serif" font-size="14" lengthAdjust="spacingAndGlyphs" textLength="55" x="321.5" y="102.0234">Broswer</text><rect fill="#FEFECE" filter="url(#fu0o6bj)" height="30.4883" style="stroke: #A80036; stroke-width: 1.5;" width="69" x="314.5" y="381.1504"/><text fill="#000000" font-family="sans-serif" font-size="14" lengthAdjust="spacingAndGlyphs" textLength="55" x="321.5" y="401.6855">Broswer</text><polygon fill="#A80036" points="137,143.9766,147,147.9766,137,151.9766,141,147.9766" style="stroke: #A80036; stroke-width: 1.0;"/><line style="stroke: #A80036; stroke-width: 1.0; stroke-dasharray: 2.0,2.0;" x1="54" x2="143" y1="147.9766" y2="147.9766"/><text fill="#000000" font-family="sans-serif" font-size="13" lengthAdjust="spacingAndGlyphs" textLength="69" x="61" y="143.5449">file change</text><polygon fill="#A80036" points="339,173.2871,349,177.2871,339,181.2871,343,177.2871" style="stroke: #A80036; stroke-width: 1.0;"/><line style="stroke: #A80036; stroke-width: 1.0; stroke-dasharray: 2.0,2.0;" x1="149" x2="345" y1="177.2871" y2="177.2871"/><text fill="#000000" font-family="sans-serif" font-size="13" lengthAdjust="spacingAndGlyphs" textLength="178" x="156" y="172.8555">event-stream(start building)</text><line style="stroke: #A80036; stroke-width: 1.0; stroke-dasharray: 2.0,2.0;" x1="149" x2="191" y1="206.9082" y2="206.9082"/><line style="stroke: #A80036; stroke-width: 1.0; stroke-dasharray: 2.0,2.0;" x1="191" x2="191" y1="206.9082" y2="219.9082"/><line style="stroke: #A80036; stroke-width: 1.0; stroke-dasharray: 2.0,2.0;" x1="150" x2="191" y1="219.9082" y2="219.9082"/><polygon fill="#A80036" points="160,215.9082,150,219.9082,160,223.9082,156,219.9082" style="stroke: #A80036; stroke-width: 1.0;"/><text fill="#000000" font-family="sans-serif" font-size="13" lengthAdjust="spacingAndGlyphs" textLength="32" x="156" y="202.166">build</text><polygon fill="#A80036" points="339,244.9082,349,248.9082,339,252.9082,343,248.9082" style="stroke: #A80036; stroke-width: 1.0;"/><line style="stroke: #A80036; stroke-width: 1.0; stroke-dasharray: 2.0,2.0;" x1="149" x2="345" y1="248.9082" y2="248.9082"/><text fill="#000000" font-family="sans-serif" font-size="13" lengthAdjust="spacingAndGlyphs" textLength="138" x="156" y="244.4766">event-stream(change)</text><polygon fill="#A80036" points="160,274.2188,150,278.2188,160,282.2188,156,278.2188" style="stroke: #A80036; stroke-width: 1.0;"/><line style="stroke: #A80036; stroke-width: 1.0; stroke-dasharray: 2.0,2.0;" x1="154" x2="350" y1="278.2188" y2="278.2188"/><text fill="#000000" font-family="sans-serif" font-size="13" lengthAdjust="spacingAndGlyphs" textLength="144" x="166" y="273.7871">get [hash]-update.json</text><polygon fill="#A80036" points="160,303.5293,150,307.5293,160,311.5293,156,307.5293" style="stroke: #A80036; stroke-width: 1.0;"/><line style="stroke: #A80036; stroke-width: 1.0; stroke-dasharray: 2.0,2.0;" x1="154" x2="350" y1="307.5293" y2="307.5293"/><text fill="#000000" font-family="sans-serif" font-size="13" lengthAdjust="spacingAndGlyphs" textLength="128" x="166" y="303.0977">get [hash]-update.js</text><line style="stroke: #A80036; stroke-width: 1.0; stroke-dasharray: 2.0,2.0;" x1="351" x2="393" y1="337.1504" y2="337.1504"/><line style="stroke: #A80036; stroke-width: 1.0; stroke-dasharray: 2.0,2.0;" x1="393" x2="393" y1="337.1504" y2="350.1504"/><line style="stroke: #A80036; stroke-width: 1.0; stroke-dasharray: 2.0,2.0;" x1="352" x2="393" y1="350.1504" y2="350.1504"/><polygon fill="#A80036" points="362,346.1504,352,350.1504,362,354.1504,358,350.1504" style="stroke: #A80036; stroke-width: 1.0;"/><text fill="#000000" font-family="sans-serif" font-size="13" lengthAdjust="spacingAndGlyphs" textLength="94" x="358" y="332.4082">update module</text><polygon fill="#A80036" points="65,360.1504,55,364.1504,65,368.1504,61,364.1504" style="stroke: #A80036; stroke-width: 1.0;"/><line style="stroke: #A80036; stroke-width: 1.0; stroke-dasharray: 2.0,2.0;" x1="59" x2="350" y1="364.1504" y2="364.1504"/></g></svg>